<mxfile host="app.diagrams.net" modified="2023-07-28T22:30:36.884Z" agent="Mozilla/5.0 (X11; Linux x86_64) AppleWebKit/537.36 (KHTML, like Gecko) Chrome/115.0.0.0 Safari/537.36" etag="2Hj1KxOMhh6gLPHES6HC" version="21.5.0" type="github">
  <diagram id="C5RBs43oDa-KdzZeNtuy" name="Page-1">
    <mxGraphModel dx="863" dy="518" grid="1" gridSize="10" guides="1" tooltips="1" connect="1" arrows="1" fold="1" page="1" pageScale="1" pageWidth="827" pageHeight="1169" math="0" shadow="0">
      <root>
        <mxCell id="WIyWlLk6GJQsqaUBKTNV-0" />
        <mxCell id="WIyWlLk6GJQsqaUBKTNV-1" parent="WIyWlLk6GJQsqaUBKTNV-0" />
        <mxCell id="nwlbYqyP9cH8zgVXEboy-3" style="rounded=0;orthogonalLoop=1;jettySize=auto;html=1;exitX=0.5;exitY=1;exitDx=0;exitDy=0;entryX=0.5;entryY=0;entryDx=0;entryDy=0;" edge="1" parent="WIyWlLk6GJQsqaUBKTNV-1" source="nwlbYqyP9cH8zgVXEboy-0" target="nwlbYqyP9cH8zgVXEboy-1">
          <mxGeometry relative="1" as="geometry" />
        </mxCell>
        <mxCell id="nwlbYqyP9cH8zgVXEboy-0" value="START" style="ellipse;whiteSpace=wrap;html=1;" vertex="1" parent="WIyWlLk6GJQsqaUBKTNV-1">
          <mxGeometry x="350" y="220" width="120" height="80" as="geometry" />
        </mxCell>
        <mxCell id="nwlbYqyP9cH8zgVXEboy-4" style="rounded=0;orthogonalLoop=1;jettySize=auto;html=1;exitX=0.5;exitY=1;exitDx=0;exitDy=0;entryX=0.5;entryY=0;entryDx=0;entryDy=0;" edge="1" parent="WIyWlLk6GJQsqaUBKTNV-1" source="nwlbYqyP9cH8zgVXEboy-1" target="nwlbYqyP9cH8zgVXEboy-2">
          <mxGeometry relative="1" as="geometry" />
        </mxCell>
        <mxCell id="nwlbYqyP9cH8zgVXEboy-1" value="MASUK HALAMAN UTAMA / HOMEPAGE" style="rounded=0;whiteSpace=wrap;html=1;" vertex="1" parent="WIyWlLk6GJQsqaUBKTNV-1">
          <mxGeometry x="310" y="350" width="200" height="80" as="geometry" />
        </mxCell>
        <mxCell id="nwlbYqyP9cH8zgVXEboy-7" style="edgeStyle=orthogonalEdgeStyle;rounded=0;orthogonalLoop=1;jettySize=auto;html=1;exitX=0.5;exitY=1;exitDx=0;exitDy=0;entryX=0.5;entryY=0;entryDx=0;entryDy=0;" edge="1" parent="WIyWlLk6GJQsqaUBKTNV-1" source="nwlbYqyP9cH8zgVXEboy-2" target="nwlbYqyP9cH8zgVXEboy-6">
          <mxGeometry relative="1" as="geometry" />
        </mxCell>
        <mxCell id="nwlbYqyP9cH8zgVXEboy-10" style="edgeStyle=orthogonalEdgeStyle;rounded=0;orthogonalLoop=1;jettySize=auto;html=1;exitX=0;exitY=0.5;exitDx=0;exitDy=0;shape=arrow;" edge="1" parent="WIyWlLk6GJQsqaUBKTNV-1" source="nwlbYqyP9cH8zgVXEboy-2" target="nwlbYqyP9cH8zgVXEboy-9">
          <mxGeometry relative="1" as="geometry" />
        </mxCell>
        <mxCell id="nwlbYqyP9cH8zgVXEboy-2" value="HALAMAN DAFTAR" style="shape=parallelogram;perimeter=parallelogramPerimeter;whiteSpace=wrap;html=1;fixedSize=1;" vertex="1" parent="WIyWlLk6GJQsqaUBKTNV-1">
          <mxGeometry x="307" y="490" width="206" height="60" as="geometry" />
        </mxCell>
        <mxCell id="nwlbYqyP9cH8zgVXEboy-5" value="Pindah Halaman Daftar" style="text;html=1;strokeColor=none;fillColor=none;align=center;verticalAlign=middle;whiteSpace=wrap;rounded=0;" vertex="1" parent="WIyWlLk6GJQsqaUBKTNV-1">
          <mxGeometry x="414" y="450" width="140" height="30" as="geometry" />
        </mxCell>
        <mxCell id="nwlbYqyP9cH8zgVXEboy-12" style="edgeStyle=orthogonalEdgeStyle;rounded=0;orthogonalLoop=1;jettySize=auto;html=1;exitX=0.5;exitY=1;exitDx=0;exitDy=0;entryX=0.555;entryY=-0.054;entryDx=0;entryDy=0;entryPerimeter=0;" edge="1" parent="WIyWlLk6GJQsqaUBKTNV-1" source="nwlbYqyP9cH8zgVXEboy-6" target="nwlbYqyP9cH8zgVXEboy-11">
          <mxGeometry relative="1" as="geometry" />
        </mxCell>
        <mxCell id="nwlbYqyP9cH8zgVXEboy-6" value="Login" style="rounded=0;whiteSpace=wrap;html=1;" vertex="1" parent="WIyWlLk6GJQsqaUBKTNV-1">
          <mxGeometry x="350" y="600" width="120" height="60" as="geometry" />
        </mxCell>
        <mxCell id="nwlbYqyP9cH8zgVXEboy-8" value="Redirect" style="text;html=1;strokeColor=none;fillColor=none;align=center;verticalAlign=middle;whiteSpace=wrap;rounded=0;" vertex="1" parent="WIyWlLk6GJQsqaUBKTNV-1">
          <mxGeometry x="414" y="564.5" width="84" height="20" as="geometry" />
        </mxCell>
        <mxCell id="nwlbYqyP9cH8zgVXEboy-9" value="- Nama lengkap&lt;br&gt;- NISN&lt;br&gt;- Password&lt;br&gt;- Alamat&lt;br&gt;- Foto Profile&lt;br&gt;- Bukti Pelajar" style="whiteSpace=wrap;html=1;aspect=fixed;" vertex="1" parent="WIyWlLk6GJQsqaUBKTNV-1">
          <mxGeometry x="90" y="465" width="110" height="110" as="geometry" />
        </mxCell>
        <mxCell id="nwlbYqyP9cH8zgVXEboy-11" value="HOME PAGE" style="rounded=0;whiteSpace=wrap;html=1;" vertex="1" parent="WIyWlLk6GJQsqaUBKTNV-1">
          <mxGeometry x="440" y="710" width="120" height="60" as="geometry" />
        </mxCell>
        <mxCell id="nwlbYqyP9cH8zgVXEboy-13" value="Session" style="text;html=1;strokeColor=none;fillColor=none;align=center;verticalAlign=middle;whiteSpace=wrap;rounded=0;" vertex="1" parent="WIyWlLk6GJQsqaUBKTNV-1">
          <mxGeometry x="510" y="670" width="60" height="30" as="geometry" />
        </mxCell>
      </root>
    </mxGraphModel>
  </diagram>
</mxfile>
